<?xml version="1.0" encoding="utf-8"?>
<!-- Generator: Adobe Illustrator 16.0.0, SVG Export Plug-In . SVG Version: 6.00 Build 0)  -->
<!DOCTYPE svg PUBLIC "-//W3C//DTD SVG 1.0//EN" "http://www.w3.org/TR/2001/REC-SVG-20010904/DTD/svg10.dtd">
<svg version="1.0" id="Layer_1" xmlns="http://www.w3.org/2000/svg" xmlns:xlink="http://www.w3.org/1999/xlink" x="0px" y="0px"
	 width="100px" height="100px" viewBox="0 0 100 100" enable-background="new 0 0 100 100" xml:space="preserve">
<path d="M40,23.333h-6.667c-3.665,0-6.666,3.002-6.666,6.667v40c0,3.665,3.001,6.667,6.666,6.667H40
	c3.665,0,6.667-3.002,6.667-6.667V30C46.667,26.335,43.665,23.333,40,23.333z M40,70h-6.667V30H40V70z"/>
<path d="M66.667,23.333H60c-3.665,0-6.667,3.002-6.667,6.667v40c0,3.665,3.002,6.667,6.667,6.667h6.667
	c3.665,0,6.666-3.002,6.666-6.667V30C73.333,26.335,70.332,23.333,66.667,23.333z M66.667,70H60V30h6.667V70z"/>
</svg>
